<?xml version="1.0" encoding="UTF-8"?>
<svg xmlns="http://www.w3.org/2000/svg" xmlns:xlink="http://www.w3.org/1999/xlink" width="199pt" height="141pt" viewBox="0 0 199 141" version="1.1">
<g id="surface1">
<path style=" stroke:none;fill-rule:nonzero;fill:rgb(38.039216%,85.490196%,98.431373%);fill-opacity:1;" d="M 157.492188 70.226562 C 157.492188 62.535156 147.875 55.242188 133.125 50.722656 C 136.527344 35.667969 135.015625 23.6875 128.347656 19.851562 C 126.8125 18.953125 125.015625 18.527344 123.054688 18.527344 L 123.054688 23.808594 C 124.140625 23.808594 125.015625 24.019531 125.75 24.421875 C 128.964844 26.269531 130.359375 33.300781 129.269531 42.34375 C 129.011719 44.566406 128.585938 46.910156 128.066406 49.300781 C 123.433594 48.164062 118.375 47.289062 113.054688 46.722656 C 109.863281 42.34375 106.554688 38.363281 103.222656 34.886719 C 110.929688 27.710938 118.160156 23.78125 123.078125 23.78125 L 123.078125 18.503906 C 116.578125 18.503906 108.070312 23.144531 99.464844 31.191406 C 90.859375 23.191406 82.351562 18.597656 75.851562 18.597656 L 75.851562 23.878906 C 80.742188 23.878906 88 27.785156 95.707031 34.910156 C 92.398438 38.390625 89.089844 42.34375 85.945312 46.722656 C 80.601562 47.289062 75.542969 48.164062 70.910156 49.324219 C 70.367188 46.957031 69.964844 44.660156 69.683594 42.460938 C 68.570312 33.417969 69.941406 26.386719 73.132812 24.515625 C 73.84375 24.089844 74.765625 23.902344 75.851562 23.902344 L 75.851562 18.621094 C 73.867188 18.621094 72.070312 19.046875 70.507812 19.949219 C 63.867188 23.78125 62.378906 35.738281 65.804688 50.746094 C 51.101562 55.289062 41.53125 62.558594 41.53125 70.226562 C 41.53125 77.921875 51.152344 85.210938 65.898438 89.734375 C 62.496094 104.789062 64.007812 116.765625 70.675781 120.601562 C 72.210938 121.5 74.007812 121.929688 75.992188 121.929688 C 82.492188 121.929688 91.003906 117.289062 99.605469 109.238281 C 108.210938 117.242188 116.71875 121.832031 123.21875 121.832031 C 125.207031 121.832031 127 121.40625 128.5625 120.507812 C 135.203125 116.671875 136.691406 104.71875 133.265625 89.710938 C 147.921875 85.1875 157.492188 77.898438 157.492188 70.226562 Z M 126.71875 54.4375 C 125.84375 57.492188 124.757812 60.640625 123.527344 63.789062 C 122.558594 61.894531 121.542969 60 120.429688 58.109375 C 119.34375 56.214844 118.183594 54.367188 117.027344 52.566406 C 120.382812 53.066406 123.621094 53.679688 126.71875 54.4375 Z M 115.890625 79.648438 C 114.046875 82.84375 112.15625 85.875 110.195312 88.691406 C 106.675781 89 103.105469 89.164062 99.511719 89.164062 C 95.941406 89.164062 92.375 89 88.875 88.714844 C 86.914062 85.898438 85 82.890625 83.15625 79.71875 C 81.359375 76.621094 79.726562 73.472656 78.238281 70.296875 C 79.703125 67.125 81.359375 63.953125 83.132812 60.855469 C 84.976562 57.65625 86.867188 54.628906 88.828125 51.8125 C 92.351562 51.503906 95.917969 51.335938 99.511719 51.335938 C 103.082031 51.335938 106.648438 51.503906 110.148438 51.789062 C 112.109375 54.605469 114.023438 57.609375 115.867188 60.78125 C 117.664062 63.882812 119.296875 67.03125 120.785156 70.203125 C 119.296875 73.375 117.664062 76.546875 115.890625 79.648438 Z M 123.527344 76.570312 C 124.804688 79.742188 125.890625 82.917969 126.789062 85.992188 C 123.691406 86.75 120.429688 87.390625 117.050781 87.886719 C 118.207031 86.0625 119.367188 84.195312 120.453125 82.277344 C 121.542969 80.382812 122.558594 78.464844 123.527344 76.570312 Z M 99.558594 101.832031 C 97.359375 99.558594 95.164062 97.023438 92.988281 94.253906 C 95.117188 94.351562 97.289062 94.421875 99.488281 94.421875 C 101.710938 94.421875 103.910156 94.375 106.058594 94.253906 C 103.933594 97.023438 101.734375 99.558594 99.558594 101.832031 Z M 81.972656 87.886719 C 78.617188 87.390625 75.378906 86.773438 72.28125 86.015625 C 73.15625 82.964844 74.242188 79.816406 75.472656 76.667969 C 76.441406 78.558594 77.457031 80.453125 78.570312 82.347656 C 79.679688 84.242188 80.816406 86.089844 81.972656 87.886719 Z M 99.441406 38.625 C 101.640625 40.898438 103.835938 43.429688 106.011719 46.199219 C 103.882812 46.105469 101.710938 46.035156 99.511719 46.035156 C 97.289062 46.035156 95.089844 46.082031 92.941406 46.199219 C 95.066406 43.429688 97.265625 40.898438 99.441406 38.625 Z M 81.949219 52.566406 C 80.792969 54.390625 79.632812 56.261719 78.546875 58.179688 C 77.457031 60.074219 76.441406 61.964844 75.472656 63.859375 C 74.195312 60.6875 73.109375 57.515625 72.210938 54.4375 C 75.308594 53.703125 78.570312 53.066406 81.949219 52.566406 Z M 60.558594 82.207031 C 52.191406 78.632812 46.777344 73.945312 46.777344 70.226562 C 46.777344 66.511719 52.191406 61.800781 60.558594 58.25 C 62.589844 57.375 64.8125 56.59375 67.105469 55.859375 C 68.453125 60.5 70.226562 65.328125 72.421875 70.273438 C 70.25 75.199219 68.5 80.003906 67.175781 84.621094 C 64.835938 83.886719 62.613281 83.082031 60.558594 82.207031 Z M 73.273438 116.035156 C 70.058594 114.1875 68.664062 107.15625 69.753906 98.113281 C 70.011719 95.886719 70.4375 93.542969 70.957031 91.152344 C 75.589844 92.289062 80.648438 93.167969 85.96875 93.734375 C 89.160156 98.113281 92.46875 102.089844 95.800781 105.570312 C 88.09375 112.742188 80.863281 116.671875 75.945312 116.671875 C 74.882812 116.648438 73.984375 116.4375 73.273438 116.035156 Z M 129.339844 97.996094 C 130.453125 107.039062 129.082031 114.070312 125.890625 115.9375 C 125.179688 116.363281 124.261719 116.554688 123.171875 116.554688 C 118.28125 116.554688 111.023438 112.648438 103.316406 105.523438 C 106.625 102.042969 109.9375 98.089844 113.078125 93.710938 C 118.421875 93.140625 123.480469 92.265625 128.113281 91.105469 C 128.65625 93.496094 129.082031 95.792969 129.339844 97.996094 Z M 138.441406 82.207031 C 136.410156 83.082031 134.1875 83.863281 131.894531 84.597656 C 130.546875 79.957031 128.773438 75.128906 126.578125 70.179688 C 128.75 65.257812 130.5 60.453125 131.824219 55.835938 C 134.164062 56.570312 136.386719 57.375 138.464844 58.25 C 146.832031 61.824219 152.246094 66.511719 152.246094 70.226562 C 152.222656 73.945312 146.808594 78.65625 138.441406 82.207031 Z M 75.828125 18.597656 Z M 75.828125 18.597656 "/>
<path style=" stroke:none;fill-rule:nonzero;fill:rgb(38.039216%,85.490196%,98.431373%);fill-opacity:1;" d="M 110.289062 70.226562 C 110.289062 76.203125 105.453125 81.046875 99.488281 81.046875 C 93.523438 81.046875 88.6875 76.203125 88.6875 70.226562 C 88.6875 64.253906 93.523438 59.410156 99.488281 59.410156 C 105.453125 59.410156 110.289062 64.253906 110.289062 70.226562 Z M 110.289062 70.226562 "/>
</g>
</svg>
