<?xml version="1.0" encoding="UTF-8"?>
<svg xmlns="http://www.w3.org/2000/svg" height="300px" width="1150px" viewBox="0 0 11500 3000" style="stroke-width:15">
  <linearGradient id="string-pattern">
    <stop offset="5%" stop-color="#888"/>
    <stop offset="50%" stop-color="#FFF"/>
    <stop offset="95%" stop-color="#888"/>
  </linearGradient>
  <g style="stroke:black;fill:rgb(111,80,0)" class="fretboard">
  <rect y="100" x="50.0" height="1000.0" width="10800"/>
  </g>

<g style="stroke:black;fill:rgb(192,192,192)">
<rect y="100" x="20.0" height="1000.0" width="60"/>
</g>
<g style="stroke:black;fill:rgb(192,192,192)">
<rect y="100" x="820.0" height="1000.0" width="60"/>
</g>
<g style="stroke:black;fill:rgb(192,192,192)">
<rect y="100" x="1575.09945014535" height="1000.0" width="60"/>
</g>
<g style="stroke:none;fill:rgb(255,255,240)">
<circle cy="600.0" cx="1961.45893740149" r="65"/>
</g>
<g style="stroke:black;fill:rgb(192,192,192)">
<rect y="100" x="2287.81842465763" height="1000.0" width="60"/>
</g>
<g style="stroke:black;fill:rgb(192,192,192)">
<rect y="100" x="2960.5355568606" height="1000.0" width="60"/>
</g>
<g style="stroke:none;fill:rgb(255,255,240)">
<circle cy="600.0" cx="3308.01576725424" r="65"/>
</g>
<g style="stroke:black;fill:rgb(192,192,192)">
<rect y="100" x="3595.49597764788" height="1000.0" width="60"/>
</g>
<g style="stroke:black;fill:rgb(192,192,192)">
<rect y="100" x="4194.81880839855" height="1000.0" width="60"/>
</g>
<g style="stroke:none;fill:rgb(255,255,240)">
<circle cy="600.0" cx="4507.66152087317" r="65"/>
</g>
<g style="stroke:black;fill:rgb(192,192,192)">
<rect y="100" x="4760.50423334779" height="1000.0" width="60"/>
</g>
<g style="stroke:black;fill:rgb(192,192,192)">
<rect y="100" x="5294.4401750158" height="1000.0" width="60"/>
</g>
<g style="stroke:none;fill:rgb(255,255,240)">
<circle cy="600.0" cx="5576.42438499478" r="65"/>
</g>
<g style="stroke:black;fill:rgb(192,192,192)">
<rect y="100" x="5798.40859497375" height="1000.0" width="60"/>
</g>
<g style="stroke:black;fill:rgb(192,192,192)">
<rect y="100" x="6274.09144097484" height="1000.0" width="60"/>
</g>
<g style="stroke:black;fill:rgb(192,192,192)">
<rect y="100" x="6723.07626029859" height="1000.0" width="60"/>
</g>
<g style="stroke:none;fill:rgb(255,255,240)">
<circle cy="350.0" cx="6964.96887917045" r="65"/>
<circle cy="850.0" cx="6964.96887917045" r="65"/>
</g>
<g style="stroke:black;fill:rgb(192,192,192)">
<rect y="100" x="7146.86149804231" height="1000.0" width="60"/>
</g>
<g style="stroke:black;fill:rgb(192,192,192)">
<rect y="100" x="7546.86149804231" height="1000.0" width="60"/>
</g>
<g style="stroke:black;fill:rgb(192,192,192)">
<rect y="100" x="7924.41122311498" height="1000.0" width="60"/>
</g>
<g style="stroke:none;fill:rgb(255,255,240)">
<circle cy="600.0" cx="8132.59096674305" r="65"/>
</g>
<g style="stroke:black;fill:rgb(192,192,192)">
<rect y="100" x="8280.77071037112" height="1000.0" width="60"/>
</g>
<g style="stroke:black;fill:rgb(192,192,192)">
<rect y="100" x="8617.12927647261" height="1000.0" width="60"/>
</g>
<g style="stroke:none;fill:rgb(255,255,240)">
<circle cy="600.0" cx="8805.86938166942" r="65"/>
</g>
<g style="stroke:black;fill:rgb(192,192,192)">
<rect y="100" x="8934.60948686625" height="1000.0" width="60"/>
</g>
<g style="stroke:black;fill:rgb(192,192,192)">
<rect y="100" x="9234.27090224158" height="1000.0" width="60"/>
</g>
<g style="stroke:none;fill:rgb(255,255,240)">
<circle cy="600.0" cx="9405.69225847889" r="65"/>
</g>
<g style="stroke:black;fill:rgb(192,192,192)">
<rect y="100" x="9517.1136147162" height="1000.0" width="60"/>
</g>
<g style="stroke:black;fill:rgb(192,192,192)">
<rect y="100" x="9784.08158555021" height="1000.0" width="60"/>
</g>
<g style="stroke:none;fill:rgb(255,255,240)">
<circle cy="600.0" cx="9940.0736905397" r="65"/>
</g>
<g style="stroke:black;fill:rgb(192,192,192)">
<rect y="100" x="10036.0657955292" height="1000.0" width="60"/>
</g>
<g style="stroke:black;fill:rgb(192,192,192)">
<rect y="100" x="10273.9072185297" height="1000.0" width="60"/>
</g>
<g style="stroke:black;fill:rgb(192,192,192)">
<rect y="100" x="10498.3996281916" height="1000.0" width="60"/>
</g>
<g style="stroke:none;fill:rgb(255,255,240)">
<circle cy="350.0" cx="10634.3459376275" r="65"/>
<circle cy="850.0" cx="10634.3459376275" r="65"/>
</g>
<g style="stroke:black;fill:rgb(192,192,192)">
<rect y="100" x="10710.2922470635" height="1000.0" width="60"/>
</g>
<g style="stroke:none;fill:url(#string-pattern)">
<rect y="173.333333333333" x="50.0" height="20" width="10800"/>
</g>
<g style="stroke:none;fill:url(#string-pattern)">
<rect y="340.0" x="50.0" height="20" width="10800"/>
</g>
<g style="stroke:none;fill:url(#string-pattern)">
<rect y="506.666666666667" x="50.0" height="20" width="10800"/>
</g>
<g style="stroke:none;fill:url(#string-pattern)">
<rect y="673.333333333333" x="50.0" height="20" width="10800"/>
</g>
<g style="stroke:none;fill:url(#string-pattern)">
<rect y="840.0" x="50.0" height="20" width="10800"/>
</g>
<g style="stroke:none;fill:url(#string-pattern)">
<rect y="1006.66666666667" x="50.0" height="20" width="10800"/>
</g>
</svg>
